<svg width="113" height="51" fill="none" xmlns="http://www.w3.org/2000/svg"><rect x=".664" y="10" width="92" height="41" rx="20.5" fill="#F9EB57"/><path d="M36.793 36.178c-.73 0-1.36-.116-1.894-.349-.533-.237-.952-.565-1.257-.984a2.85 2.85 0 0 1-.513-1.47H34.4c.037.383.167.7.39.95.228.25.517.438.868.56.351.124.73.185 1.135.185.47 0 .89-.077 1.265-.232.378-.155.676-.371.895-.65.219-.278.328-.603.328-.977 0-.337-.096-.61-.287-.82a2.133 2.133 0 0 0-.752-.513 7.755 7.755 0 0 0-.998-.349L36 31.174c-.797-.228-1.429-.554-1.894-.978-.46-.428-.69-.986-.69-1.675 0-.57.153-1.066.458-1.49.31-.428.727-.76 1.251-.998a4.263 4.263 0 0 1 1.764-.355c.656 0 1.24.118 1.75.355.51.233.916.552 1.216.957.301.401.46.857.479 1.367h-1.203c-.06-.5-.3-.89-.725-1.168-.419-.279-.939-.418-1.558-.418-.447 0-.839.073-1.176.22-.337.145-.6.346-.786.6-.187.256-.28.548-.28.876 0 .36.111.652.334.875.224.219.488.39.793.513.31.122.59.22.841.293l1.026.288c.264.073.558.17.881.294.329.122.643.289.944.498.305.21.556.479.752.807.196.324.294.725.294 1.203 0 .547-.144 1.044-.431 1.49-.287.443-.704.796-1.25 1.06-.548.26-1.213.39-1.997.39zm7.137 0a3.12 3.12 0 0 1-1.32-.274 2.263 2.263 0 0 1-.943-.806c-.232-.351-.349-.775-.349-1.272 0-.437.087-.79.26-1.06.173-.273.403-.487.69-.642.292-.16.611-.278.958-.355.35-.078.704-.14 1.06-.185.464-.06.84-.105 1.127-.137.292-.032.504-.086.636-.164.136-.077.205-.21.205-.396v-.041c0-.488-.134-.866-.403-1.135-.265-.273-.668-.41-1.21-.41-.556 0-.994.123-1.313.369-.319.241-.542.501-.67.78l-1.12-.397c.2-.465.466-.827.799-1.087a3.09 3.09 0 0 1 1.094-.547 4.561 4.561 0 0 1 1.169-.157c.246 0 .528.03.847.089.32.054.63.173.93.355.305.178.556.449.752.814.2.36.3.843.3 1.449V36h-1.175v-1.04h-.055c-.077.165-.21.343-.396.534a2.423 2.423 0 0 1-.745.486c-.306.132-.682.198-1.128.198zm.177-1.053c.465 0 .857-.091 1.176-.273a1.89 1.89 0 0 0 .725-.704 1.83 1.83 0 0 0 .246-.91v-1.08c-.05.06-.16.114-.328.164a5.632 5.632 0 0 1-.574.123c-.215.037-.424.069-.63.096l-.492.055c-.305.04-.59.107-.854.198a1.515 1.515 0 0 0-.643.39c-.16.173-.239.41-.239.71 0 .406.15.714.451.923.306.206.693.308 1.162.308zm4.827.875v-7.643h1.12v1.163h.083c.141-.379.394-.684.758-.916.37-.238.782-.356 1.238-.356.086 0 .194.002.321.007.128 0 .226.002.294.007v1.19a4.015 4.015 0 0 0-.725-.07c-.369 0-.7.078-.99.233a1.788 1.788 0 0 0-.691.636 1.736 1.736 0 0 0-.246.923V36h-1.162zm6.794.178a3.12 3.12 0 0 1-1.319-.274 2.263 2.263 0 0 1-.943-.806c-.233-.351-.349-.775-.349-1.272 0-.437.087-.79.26-1.06.173-.273.403-.487.69-.642.292-.16.611-.278.957-.355.351-.078.704-.14 1.06-.185.465-.06.84-.105 1.128-.137.292-.032.503-.086.636-.164.136-.077.205-.21.205-.396v-.041c0-.488-.135-.866-.404-1.135-.264-.273-.667-.41-1.21-.41-.556 0-.993.123-1.312.369-.32.241-.542.501-.67.78l-1.121-.397c.2-.465.467-.827.8-1.087a3.09 3.09 0 0 1 1.093-.547 4.562 4.562 0 0 1 1.17-.157c.245 0 .528.03.847.089.32.054.629.173.93.355.305.178.556.449.752.814.2.36.3.843.3 1.449V36h-1.175v-1.04h-.055c-.077.165-.21.343-.396.534a2.425 2.425 0 0 1-.746.486c-.305.132-.68.198-1.128.198zm.178-1.053c.465 0 .857-.091 1.176-.273a1.89 1.89 0 0 0 .725-.704 1.83 1.83 0 0 0 .246-.91v-1.08c-.05.06-.16.114-.328.164a5.632 5.632 0 0 1-.575.123c-.214.037-.423.069-.628.096l-.493.055c-.305.04-.59.107-.854.198a1.515 1.515 0 0 0-.643.39c-.16.173-.239.41-.239.71 0 .406.15.714.451.923.306.206.693.308 1.162.308z" fill="#1A1A1C"/><path d="M36.793 36.178c-.73 0-1.36-.116-1.894-.349-.533-.237-.952-.565-1.257-.984a2.85 2.85 0 0 1-.513-1.47H34.4c.037.383.167.7.39.95.228.25.517.438.868.56.351.124.73.185 1.135.185.47 0 .89-.077 1.265-.232.378-.155.676-.371.895-.65.219-.278.328-.603.328-.977 0-.337-.096-.61-.287-.82a2.133 2.133 0 0 0-.752-.513 7.755 7.755 0 0 0-.998-.349L36 31.174c-.797-.228-1.429-.554-1.894-.978-.46-.428-.69-.986-.69-1.675 0-.57.153-1.066.458-1.49.31-.428.727-.76 1.251-.998a4.263 4.263 0 0 1 1.764-.355c.656 0 1.24.118 1.75.355.51.233.916.552 1.216.957.301.401.46.857.479 1.367h-1.203c-.06-.5-.3-.89-.725-1.168-.419-.279-.939-.418-1.558-.418-.447 0-.839.073-1.176.22-.337.145-.6.346-.786.6-.187.256-.28.548-.28.876 0 .36.111.652.334.875.224.219.488.39.793.513.31.122.59.22.841.293l1.026.288c.264.073.558.17.881.294.329.122.643.289.944.498.305.21.556.479.752.807.196.324.294.725.294 1.203 0 .547-.144 1.044-.431 1.49-.287.443-.704.796-1.25 1.06-.548.26-1.213.39-1.997.39zm7.137 0a3.12 3.12 0 0 1-1.32-.274 2.263 2.263 0 0 1-.943-.806c-.232-.351-.349-.775-.349-1.272 0-.437.087-.79.26-1.06.173-.273.403-.487.69-.642.292-.16.611-.278.958-.355.35-.078.704-.14 1.06-.185.464-.06.84-.105 1.127-.137.292-.032.504-.086.636-.164.136-.077.205-.21.205-.396v-.041c0-.488-.134-.866-.403-1.135-.265-.273-.668-.41-1.21-.41-.556 0-.994.123-1.313.369-.319.241-.542.501-.67.78l-1.12-.397c.2-.465.466-.827.799-1.087a3.09 3.09 0 0 1 1.094-.547 4.561 4.561 0 0 1 1.169-.157c.246 0 .528.03.847.089.32.054.63.173.93.355.305.178.556.449.752.814.2.36.3.843.3 1.449V36h-1.175v-1.04h-.055c-.077.165-.21.343-.396.534a2.423 2.423 0 0 1-.745.486c-.306.132-.682.198-1.128.198zm.177-1.053c.465 0 .857-.091 1.176-.273a1.89 1.89 0 0 0 .725-.704 1.83 1.83 0 0 0 .246-.91v-1.08c-.05.06-.16.114-.328.164a5.632 5.632 0 0 1-.574.123c-.215.037-.424.069-.63.096l-.492.055c-.305.04-.59.107-.854.198a1.515 1.515 0 0 0-.643.39c-.16.173-.239.41-.239.71 0 .406.15.714.451.923.306.206.693.308 1.162.308zm4.827.875v-7.643h1.12v1.163h.083c.141-.379.394-.684.758-.916.37-.238.782-.356 1.238-.356.086 0 .194.002.321.007.128 0 .226.002.294.007v1.19a4.015 4.015 0 0 0-.725-.07c-.369 0-.7.078-.99.233a1.788 1.788 0 0 0-.691.636 1.736 1.736 0 0 0-.246.923V36h-1.162zm6.794.178a3.12 3.12 0 0 1-1.319-.274 2.263 2.263 0 0 1-.943-.806c-.233-.351-.349-.775-.349-1.272 0-.437.087-.79.26-1.06.173-.273.403-.487.69-.642.292-.16.611-.278.957-.355.351-.078.704-.14 1.06-.185.465-.06.84-.105 1.128-.137.292-.032.503-.086.636-.164.136-.077.205-.21.205-.396v-.041c0-.488-.135-.866-.404-1.135-.264-.273-.667-.41-1.21-.41-.556 0-.993.123-1.312.369-.32.241-.542.501-.67.78l-1.121-.397c.2-.465.467-.827.8-1.087a3.09 3.09 0 0 1 1.093-.547 4.562 4.562 0 0 1 1.17-.157c.245 0 .528.03.847.089.32.054.629.173.93.355.305.178.556.449.752.814.2.36.3.843.3 1.449V36h-1.175v-1.04h-.055c-.077.165-.21.343-.396.534a2.425 2.425 0 0 1-.746.486c-.305.132-.68.198-1.128.198zm.178-1.053c.465 0 .857-.091 1.176-.273a1.89 1.89 0 0 0 .725-.704 1.83 1.83 0 0 0 .246-.91v-1.08c-.05.06-.16.114-.328.164a5.632 5.632 0 0 1-.575.123c-.214.037-.423.069-.628.096l-.493.055c-.305.04-.59.107-.854.198a1.515 1.515 0 0 0-.643.39c-.16.173-.239.41-.239.71 0 .406.15.714.451.923.306.206.693.308 1.162.308z" fill="#000" fill-opacity=".2"/><path d="M36.793 36.178c-.73 0-1.36-.116-1.894-.349-.533-.237-.952-.565-1.257-.984a2.85 2.85 0 0 1-.513-1.47H34.4c.037.383.167.7.39.95.228.25.517.438.868.56.351.124.73.185 1.135.185.47 0 .89-.077 1.265-.232.378-.155.676-.371.895-.65.219-.278.328-.603.328-.977 0-.337-.096-.61-.287-.82a2.133 2.133 0 0 0-.752-.513 7.755 7.755 0 0 0-.998-.349L36 31.174c-.797-.228-1.429-.554-1.894-.978-.46-.428-.69-.986-.69-1.675 0-.57.153-1.066.458-1.49.31-.428.727-.76 1.251-.998a4.263 4.263 0 0 1 1.764-.355c.656 0 1.24.118 1.75.355.51.233.916.552 1.216.957.301.401.46.857.479 1.367h-1.203c-.06-.5-.3-.89-.725-1.168-.419-.279-.939-.418-1.558-.418-.447 0-.839.073-1.176.22-.337.145-.6.346-.786.6-.187.256-.28.548-.28.876 0 .36.111.652.334.875.224.219.488.39.793.513.31.122.59.22.841.293l1.026.288c.264.073.558.17.881.294.329.122.643.289.944.498.305.21.556.479.752.807.196.324.294.725.294 1.203 0 .547-.144 1.044-.431 1.49-.287.443-.704.796-1.25 1.06-.548.26-1.213.39-1.997.39zm7.137 0a3.12 3.12 0 0 1-1.32-.274 2.263 2.263 0 0 1-.943-.806c-.232-.351-.349-.775-.349-1.272 0-.437.087-.79.26-1.06.173-.273.403-.487.69-.642.292-.16.611-.278.958-.355.35-.078.704-.14 1.06-.185.464-.06.84-.105 1.127-.137.292-.032.504-.086.636-.164.136-.077.205-.21.205-.396v-.041c0-.488-.134-.866-.403-1.135-.265-.273-.668-.41-1.21-.41-.556 0-.994.123-1.313.369-.319.241-.542.501-.67.78l-1.12-.397c.2-.465.466-.827.799-1.087a3.09 3.09 0 0 1 1.094-.547 4.561 4.561 0 0 1 1.169-.157c.246 0 .528.03.847.089.32.054.63.173.93.355.305.178.556.449.752.814.2.36.3.843.3 1.449V36h-1.175v-1.04h-.055c-.077.165-.21.343-.396.534a2.423 2.423 0 0 1-.745.486c-.306.132-.682.198-1.128.198zm.177-1.053c.465 0 .857-.091 1.176-.273a1.89 1.89 0 0 0 .725-.704 1.83 1.83 0 0 0 .246-.91v-1.08c-.05.06-.16.114-.328.164a5.632 5.632 0 0 1-.574.123c-.215.037-.424.069-.63.096l-.492.055c-.305.04-.59.107-.854.198a1.515 1.515 0 0 0-.643.39c-.16.173-.239.41-.239.71 0 .406.15.714.451.923.306.206.693.308 1.162.308zm4.827.875v-7.643h1.12v1.163h.083c.141-.379.394-.684.758-.916.37-.238.782-.356 1.238-.356.086 0 .194.002.321.007.128 0 .226.002.294.007v1.19a4.015 4.015 0 0 0-.725-.07c-.369 0-.7.078-.99.233a1.788 1.788 0 0 0-.691.636 1.736 1.736 0 0 0-.246.923V36h-1.162zm6.794.178a3.12 3.12 0 0 1-1.319-.274 2.263 2.263 0 0 1-.943-.806c-.233-.351-.349-.775-.349-1.272 0-.437.087-.79.26-1.06.173-.273.403-.487.69-.642.292-.16.611-.278.957-.355.351-.078.704-.14 1.06-.185.465-.06.84-.105 1.128-.137.292-.032.503-.086.636-.164.136-.077.205-.21.205-.396v-.041c0-.488-.135-.866-.404-1.135-.264-.273-.667-.41-1.21-.41-.556 0-.993.123-1.312.369-.32.241-.542.501-.67.78l-1.121-.397c.2-.465.467-.827.8-1.087a3.09 3.09 0 0 1 1.093-.547 4.562 4.562 0 0 1 1.17-.157c.245 0 .528.03.847.089.32.054.629.173.93.355.305.178.556.449.752.814.2.36.3.843.3 1.449V36h-1.175v-1.04h-.055c-.077.165-.21.343-.396.534a2.425 2.425 0 0 1-.746.486c-.305.132-.68.198-1.128.198zm.178-1.053c.465 0 .857-.091 1.176-.273a1.89 1.89 0 0 0 .725-.704 1.83 1.83 0 0 0 .246-.91v-1.08c-.05.06-.16.114-.328.164a5.632 5.632 0 0 1-.575.123c-.214.037-.423.069-.628.096l-.493.055c-.305.04-.59.107-.854.198a1.515 1.515 0 0 0-.643.39c-.16.173-.239.41-.239.71 0 .406.15.714.451.923.306.206.693.308 1.162.308z" fill="#000" fill-opacity=".2"/><path d="M36.793 36.178c-.73 0-1.36-.116-1.894-.349-.533-.237-.952-.565-1.257-.984a2.85 2.85 0 0 1-.513-1.47H34.4c.037.383.167.7.39.95.228.25.517.438.868.56.351.124.73.185 1.135.185.47 0 .89-.077 1.265-.232.378-.155.676-.371.895-.65.219-.278.328-.603.328-.977 0-.337-.096-.61-.287-.82a2.133 2.133 0 0 0-.752-.513 7.755 7.755 0 0 0-.998-.349L36 31.174c-.797-.228-1.429-.554-1.894-.978-.46-.428-.69-.986-.69-1.675 0-.57.153-1.066.458-1.49.31-.428.727-.76 1.251-.998a4.263 4.263 0 0 1 1.764-.355c.656 0 1.24.118 1.75.355.51.233.916.552 1.216.957.301.401.46.857.479 1.367h-1.203c-.06-.5-.3-.89-.725-1.168-.419-.279-.939-.418-1.558-.418-.447 0-.839.073-1.176.22-.337.145-.6.346-.786.6-.187.256-.28.548-.28.876 0 .36.111.652.334.875.224.219.488.39.793.513.31.122.59.22.841.293l1.026.288c.264.073.558.17.881.294.329.122.643.289.944.498.305.21.556.479.752.807.196.324.294.725.294 1.203 0 .547-.144 1.044-.431 1.49-.287.443-.704.796-1.25 1.06-.548.26-1.213.39-1.997.39zm7.137 0a3.12 3.12 0 0 1-1.32-.274 2.263 2.263 0 0 1-.943-.806c-.232-.351-.349-.775-.349-1.272 0-.437.087-.79.26-1.06.173-.273.403-.487.69-.642.292-.16.611-.278.958-.355.35-.078.704-.14 1.06-.185.464-.06.84-.105 1.127-.137.292-.032.504-.086.636-.164.136-.077.205-.21.205-.396v-.041c0-.488-.134-.866-.403-1.135-.265-.273-.668-.41-1.21-.41-.556 0-.994.123-1.313.369-.319.241-.542.501-.67.78l-1.12-.397c.2-.465.466-.827.799-1.087a3.09 3.09 0 0 1 1.094-.547 4.561 4.561 0 0 1 1.169-.157c.246 0 .528.03.847.089.32.054.63.173.93.355.305.178.556.449.752.814.2.36.3.843.3 1.449V36h-1.175v-1.04h-.055c-.077.165-.21.343-.396.534a2.423 2.423 0 0 1-.745.486c-.306.132-.682.198-1.128.198zm.177-1.053c.465 0 .857-.091 1.176-.273a1.89 1.89 0 0 0 .725-.704 1.83 1.83 0 0 0 .246-.91v-1.08c-.05.06-.16.114-.328.164a5.632 5.632 0 0 1-.574.123c-.215.037-.424.069-.63.096l-.492.055c-.305.04-.59.107-.854.198a1.515 1.515 0 0 0-.643.39c-.16.173-.239.41-.239.71 0 .406.15.714.451.923.306.206.693.308 1.162.308zm4.827.875v-7.643h1.12v1.163h.083c.141-.379.394-.684.758-.916.37-.238.782-.356 1.238-.356.086 0 .194.002.321.007.128 0 .226.002.294.007v1.19a4.015 4.015 0 0 0-.725-.07c-.369 0-.7.078-.99.233a1.788 1.788 0 0 0-.691.636 1.736 1.736 0 0 0-.246.923V36h-1.162zm6.794.178a3.12 3.12 0 0 1-1.319-.274 2.263 2.263 0 0 1-.943-.806c-.233-.351-.349-.775-.349-1.272 0-.437.087-.79.26-1.06.173-.273.403-.487.69-.642.292-.16.611-.278.957-.355.351-.078.704-.14 1.06-.185.465-.06.84-.105 1.128-.137.292-.032.503-.086.636-.164.136-.077.205-.21.205-.396v-.041c0-.488-.135-.866-.404-1.135-.264-.273-.667-.41-1.21-.41-.556 0-.993.123-1.312.369-.32.241-.542.501-.67.78l-1.121-.397c.2-.465.467-.827.8-1.087a3.09 3.09 0 0 1 1.093-.547 4.562 4.562 0 0 1 1.17-.157c.245 0 .528.03.847.089.32.054.629.173.93.355.305.178.556.449.752.814.2.36.3.843.3 1.449V36h-1.175v-1.04h-.055c-.077.165-.21.343-.396.534a2.425 2.425 0 0 1-.746.486c-.305.132-.68.198-1.128.198zm.178-1.053c.465 0 .857-.091 1.176-.273a1.89 1.89 0 0 0 .725-.704 1.83 1.83 0 0 0 .246-.91v-1.08c-.05.06-.16.114-.328.164a5.632 5.632 0 0 1-.575.123c-.214.037-.423.069-.628.096l-.493.055c-.305.04-.59.107-.854.198a1.515 1.515 0 0 0-.643.39c-.16.173-.239.41-.239.71 0 .406.15.714.451.923.306.206.693.308 1.162.308z" fill="#000" fill-opacity=".2"/><g clip-path="url(#clip0_1005_23846)"><path d="M111.951.05l-18.883 6.3c-.534.179-.534.476-.03.684l8.982 3.596 4.51 9.024c.238.475.564.456.713-.07l5.38-18.9c.149-.515-.158-.802-.672-.634z" fill="#FCFCFC"/></g><defs><clipPath id="clip0_1005_23846"><path fill="#fff" transform="translate(92.664)" d="M0 0H20V20H0z"/></clipPath></defs></svg>